<svg xmlns="http://www.w3.org/2000/svg" width="400" height="400" viewBox="-50 -50 100 100" fill="none">
  <circle cx="0" cy="0" r="40" stroke-width="2" stroke="black" />
  <circle cx="0" cy="0" r="35" stroke-width="10" stroke="black" pathLength="12" stroke-dasharray="1 1" stroke-dashoffset="3.5" />
  <circle cx="0" cy="0" r="30" stroke-width="2" stroke="black" />
  <circle cx="0" cy="0" r="25" stroke-width="2" stroke="black" />

  <svg x="-25" y="-25" width="50" height="50" viewBox="0 0 1695 1723" fill="none" xmlns="http://www.w3.org/2000/svg">
<path fill-rule="evenodd" clip-rule="evenodd" d="M1451.66 342.655C1615.05 539.866 1725.69 793.106 1687.4 1030.78C1649.11 1268.46 1461.67 1489.24 1222.59 1613.08C982.62 1736.92 691.003 1764.04 457.486 1653.54C224.86 1542.37 50.5579 1294.47 10.0431 1035.45C-31.5847 777.542 59.4622 508.294 222.634 312.417C386.029 116.318 620.658 -6.41122 846.383 0.25883C1071 8.04056 1288.26 146.778 1451.43 342.655H1451.66ZM418.085 258.167C563.225 136.995 909.159 30.9411 1037.16 177.015C1165.16 323.089 1106.84 579.219 829.243 798.886C604.408 976.754 697.013 1083.48 794.293 1195.53C817.222 1221.99 840.373 1248.67 859.74 1276.68C961.25 1423.65 859.74 1636.42 641.584 1606.18C423.427 1575.72 189.02 1350.72 139.156 1170.41C89.2918 989.872 118.899 790.215 139.156 678.825C159.413 567.435 273.166 379.34 418.307 258.167H418.085ZM884.004 372.892C875.99 347.769 861.076 323.089 843.49 307.081C825.681 290.851 795.851 283.291 770.251 284.181C744.651 285.07 719.719 294.408 702.356 310.639C684.992 327.091 675.42 350.214 668.297 374.226C661.173 398.016 656.498 422.251 663.177 442.706C669.855 463.16 688.331 479.391 707.921 495.621C727.511 511.852 748.436 528.082 772.255 531.862C795.851 535.642 822.342 526.748 843.267 510.962C864.192 495.177 879.997 472.276 884.672 448.264C889.347 424.029 892.018 398.461 884.227 373.337L884.004 372.892ZM1352.82 1132.83C1348.14 1107.71 1332.56 1083.92 1311.19 1069.91C1289.82 1056.13 1262.44 1052.13 1236.84 1054.79C1211.46 1057.68 1188.09 1066.8 1165.16 1080.14C1142.45 1093.7 1120.41 1111.27 1111.29 1134.17C1102.16 1157.29 1105.72 1185.97 1117.3 1208.65C1128.87 1231.55 1148.46 1248.89 1169.39 1262.45C1190.31 1276.24 1212.8 1286.47 1235.73 1287.58C1258.88 1288.69 1282.7 1280.69 1301.17 1266.01C1319.65 1251.34 1332.56 1230.44 1342.13 1206.87C1351.48 1183.3 1357.49 1157.29 1352.82 1132.39V1132.83Z" fill="black" />
</svg>
</svg>
